<svg xmlns="http://www.w3.org/2000/svg" xmlns:xlink="http://www.w3.org/1999/xlink" width="1200" height="1200" viewBox="0 0 1200 1200"><g><g transform="translate(600 600) scale(0.69 0.69) rotate(0) translate(-600 -600)" style="fill:#ffffff"><svg fill="#ffffff" xmlns="http://www.w3.org/2000/svg" xmlns:xlink="http://www.w3.org/1999/xlink" version="1.1" x="0px" y="0px" viewBox="0 0 76.3 15.4" style="enable-background:new 0 0 76.3 15.4;" xml:space="preserve"><path d="M15.6,6h-4l2-3.5C14,1.7,13.8,0.7,13,0.2l0,0c-0.8-0.5-1.8-0.2-2.3,0.6l-2,3.5l-2-3.5C6.2,0,5.1-0.2,4.3,0.2l0,0  C3.5,0.7,3.2,1.7,3.7,2.5l2,3.5h-4C0.8,6,0,6.8,0,7.7v0c0,0.9,0.8,1.7,1.7,1.7h4l-2,3.5c-0.5,0.8-0.2,1.8,0.6,2.3l0,0  c0.8,0.5,1.8,0.2,2.3-0.6l2-3.5l2,3.5c0.5,0.8,1.5,1.1,2.3,0.6l0,0c0.8-0.5,1.1-1.5,0.6-2.3l-2-3.5h4c0.9,0,1.7-0.8,1.7-1.7v0  C17.3,6.8,16.5,6,15.6,6z"></path><path d="M74.6,6h-4l2-3.5c0.5-0.8,0.2-1.8-0.6-2.3v0c-0.8-0.5-1.8-0.2-2.3,0.6l-2,3.5l-2-3.5c-0.5-0.8-1.5-1.1-2.3-0.6l0,0  c-0.8,0.5-1.1,1.5-0.6,2.3l2,3.5h-4C59.8,6,59,6.8,59,7.7v0c0,0.9,0.8,1.7,1.7,1.7h4l-2,3.5c-0.5,0.8-0.2,1.8,0.6,2.3l0,0  c0.8,0.5,1.8,0.2,2.3-0.6l2-3.5l2,3.5c0.5,0.8,1.5,1.1,2.3,0.6v0c0.8-0.5,1.1-1.5,0.6-2.3l-2-3.5h4c0.9,0,1.7-0.8,1.7-1.7v0  C76.3,6.8,75.6,6,74.6,6z"></path><path d="M54.9,6h-4l2-3.5c0.5-0.8,0.2-1.8-0.6-2.3v0C51.5-0.2,50.5,0,50,0.8l-2,3.5l-2-3.5c-0.5-0.8-1.5-1.1-2.3-0.6l0,0  c-0.8,0.5-1.1,1.5-0.6,2.3l2,3.5h-4c-0.9,0-1.7,0.8-1.7,1.7v0c0,0.9,0.8,1.7,1.7,1.7h4l-2,3.5c-0.5,0.8-0.2,1.8,0.6,2.3l0,0  c0.8,0.5,1.8,0.2,2.3-0.6l2-3.5l2,3.5c0.5,0.8,1.5,1.1,2.3,0.6v0c0.8-0.5,1.1-1.5,0.6-2.3l-2-3.5h4c0.9,0,1.7-0.8,1.7-1.7v0  C56.6,6.8,55.9,6,54.9,6z"></path><path d="M35.3,6h-4l2-3.5c0.5-0.8,0.2-1.8-0.6-2.3l0,0c-0.8-0.5-1.8-0.2-2.3,0.6l-2,3.5l-2-3.5C25.8,0,24.8-0.2,24,0.2l0,0  c-0.8,0.5-1.1,1.5-0.6,2.3l2,3.5h-4c-0.9,0-1.7,0.8-1.7,1.7v0c0,0.9,0.8,1.7,1.7,1.7h4l-2,3.5c-0.5,0.8-0.2,1.8,0.6,2.3l0,0  c0.8,0.5,1.8,0.2,2.3-0.6l2-3.5l2,3.5c0.5,0.8,1.5,1.1,2.3,0.6l0,0c0.8-0.5,1.1-1.5,0.6-2.3l-2-3.5h4c0.9,0,1.7-0.8,1.7-1.7v0  C37,6.8,36.2,6,35.3,6z"></path></svg></g></g></svg>