<svg xmlns="http://www.w3.org/2000/svg" xmlns:xlink="http://www.w3.org/1999/xlink" width="1200" height="1200" viewBox="0 0 1200 1200"><g><g transform="translate(600 600) scale(0.69 0.69) rotate(0) translate(-600 -600)" style="fill:#FFFFFF"><svg fill="#FFFFFF" xmlns="http://www.w3.org/2000/svg" xmlns:xlink="http://www.w3.org/1999/xlink" version="1.0" x="0px" y="0px" viewBox="0 0 32 32" enable-background="new 0 0 32 32" xml:space="preserve"><path d="M18,26c0,1.105-0.895,2-2,2s-2-0.895-2-2s0.895-2,2-2S18,24.895,18,26z M24,12c0-4.418-3.582-8-8-8s-8,3.582-8,8  c0,1.104,0.895,2,2,2s2-0.896,2-2c0-2.209,1.791-4,4-4s4,1.791,4,4s-1.791,4-4,4c-1.105,0-2,0.896-2,2v2c0,1.104,0.895,2,2,2  s2-0.896,2-2v-0.283C21.443,18.824,24,15.723,24,12z"></path></svg></g></g></svg>